<svg width="40" height="32" viewBox="0 0 40 32" fill="none" xmlns="http://www.w3.org/2000/svg">
<path d="M17.7778 3.54898C15.8959 4.61368 14.3744 5.54036 13.2132 6.32902C12.0521 7.07825 10.8709 8.0838 9.66967 9.34566C8.54855 10.5287 7.68769 11.7708 7.08709 13.0721C6.48649 14.3734 6.06607 16.0493 5.82583 18.0998H8.70871C11.1912 18.0998 13.1331 18.711 14.5345 19.9335C15.976 21.1165 16.6967 22.8712 16.6967 25.1978C16.6967 26.854 16.0561 28.4116 14.7748 29.8706C13.5335 31.2902 11.8118 32 9.60961 32C6.16617 32 3.7037 30.8959 2.22222 28.6876C0.740741 26.4399 0 23.5022 0 19.8743C0 17.3112 0.560561 14.9846 1.68168 12.8946C2.8028 10.7652 4.16416 8.87246 5.76577 7.21627C7.40741 5.52064 9.14915 4.08133 10.991 2.89834C12.8328 1.71534 14.3744 0.74923 15.6156 0L17.7778 3.54898ZM40 3.54898C38.1181 4.61368 36.5966 5.54036 35.4354 6.32902C34.2743 7.07825 33.0931 8.0838 31.8919 9.34566C30.7307 10.5681 29.8499 11.8299 29.2492 13.1312C28.6887 14.3931 28.2883 16.0493 28.048 18.0998H30.9309C33.4134 18.0998 35.3554 18.711 36.7568 19.9335C38.1982 21.1165 38.9189 22.8712 38.9189 25.1978C38.9189 26.854 38.2783 28.4116 36.997 29.8706C35.7558 31.2902 34.034 32 31.8318 32C28.3884 32 25.9259 30.8959 24.4444 28.6876C22.963 26.4399 22.2222 23.5022 22.2222 19.8743C22.2222 17.3112 22.7828 14.9846 23.9039 12.8946C25.025 10.7652 26.3864 8.87246 27.988 7.21627C29.6296 5.52064 31.3714 4.08133 33.2132 2.89834C35.0551 1.71534 36.5966 0.74923 37.8378 0L40 3.54898Z" fill="#4747D7"/>
</svg>
