<svg width="126" height="38" viewBox="0 0 126 38" fill="none" xmlns="http://www.w3.org/2000/svg">
<path d="M36.7792 4.5277L36.7807 4.52831C37.522 4.8333 38 5.55119 38 6.33231C38 23.6713 27.2632 33.1708 20.7721 35.8475C20.2769 36.0507 19.7164 36.0509 19.221 35.848C11.0801 32.4898 2 21.9229 2 6.33231C2 5.55308 2.47589 4.83589 3.22401 4.5298L3.22402 4.52981L3.22912 4.5277C7.81918 2.63492 14.6298 2 20.0042 2C25.3785 2 32.1892 2.63492 36.7792 4.5277Z" stroke="#4747D7" stroke-width="4"/>
<path d="M26.1396 28.7049C24.4024 28.1663 21.9057 28 20.0015 28C18.0973 28 15.6006 28.1663 13.8633 28.7049C13.3413 28.8655 13 29.2453 13 29.6664C13 33.9745 16.3396 36.9523 19.4604 37.9202C19.8046 38.0266 20.1925 38.0266 20.5367 37.9202C23.0362 37.1454 27 34.4694 27 29.6664C27 29.2453 26.6588 28.8655 26.1396 28.7049Z" fill="#4747D7"/>
<path d="M21.096 24.376C19.384 24.376 17.832 24.008 16.44 23.272C15.064 22.52 13.976 21.488 13.176 20.176C12.392 18.848 12 17.352 12 15.688C12 14.024 12.392 12.536 13.176 11.224C13.976 9.896 15.064 8.864 16.44 8.128C17.832 7.376 19.392 7 21.12 7C22.576 7 23.888 7.256 25.056 7.768C26.24 8.28 27.232 9.016 28.032 9.976L25.536 12.28C24.4 10.968 22.992 10.312 21.312 10.312C20.272 10.312 19.344 10.544 18.528 11.008C17.712 11.456 17.072 12.088 16.608 12.904C16.16 13.72 15.936 14.648 15.936 15.688C15.936 16.728 16.16 17.656 16.608 18.472C17.072 19.288 17.712 19.928 18.528 20.392C19.344 20.84 20.272 21.064 21.312 21.064C22.992 21.064 24.4 20.4 25.536 19.072L28.032 21.376C27.232 22.352 26.24 23.096 25.056 23.608C23.872 24.12 22.552 24.376 21.096 24.376Z" fill="#4747D7"/>
<path d="M55.362 6.018C56.594 6.018 57.616 6.33533 58.428 6.97C59.24 7.60467 59.7767 8.468 60.038 9.56H57.966C57.7513 9.028 57.4153 8.608 56.958 8.3C56.51 7.992 55.9687 7.838 55.334 7.838C54.8113 7.838 54.34 7.96867 53.92 8.23C53.5 8.49133 53.1733 8.86467 52.94 9.35C52.7067 9.83533 52.59 10.4047 52.59 11.058C52.59 11.702 52.7067 12.2667 52.94 12.752C53.1733 13.2373 53.5 13.6107 53.92 13.872C54.34 14.1333 54.8113 14.264 55.334 14.264C55.9687 14.264 56.51 14.11 56.958 13.802C57.4153 13.494 57.7513 13.074 57.966 12.542H60.038C59.7767 13.634 59.24 14.4973 58.428 15.132C57.616 15.7667 56.594 16.084 55.362 16.084C54.4193 16.084 53.584 15.874 52.856 15.454C52.1373 15.0247 51.5773 14.4273 51.176 13.662C50.784 12.8967 50.588 12.0287 50.588 11.058C50.588 10.078 50.784 9.20533 51.176 8.44C51.5773 7.67467 52.1373 7.082 52.856 6.662C53.5747 6.23267 54.41 6.018 55.362 6.018ZM66.139 8.132C67.035 8.132 67.749 8.426 68.281 9.014C68.813 9.602 69.079 10.428 69.079 11.492V16H67.119V11.716C67.119 11.1 66.9604 10.624 66.643 10.288C66.3257 9.94267 65.8917 9.77 65.341 9.77C64.781 9.77 64.333 9.952 63.997 10.316C63.661 10.68 63.493 11.2027 63.493 11.884V16H61.519V5.64H63.493V9.798C63.6984 9.27533 64.0344 8.86933 64.501 8.58C64.977 8.28133 65.523 8.132 66.139 8.132ZM73.8539 8.146C74.5073 8.146 75.0673 8.3 75.5339 8.608C76.0006 8.916 76.3319 9.33133 76.5279 9.854V8.244H78.4879V16H76.5279V14.376C76.3319 14.8987 76.0006 15.3187 75.5339 15.636C75.0673 15.944 74.5073 16.098 73.8539 16.098C73.2006 16.098 72.6126 15.9393 72.0899 15.622C71.5673 15.3047 71.1566 14.8473 70.8579 14.25C70.5686 13.6433 70.4239 12.934 70.4239 12.122C70.4239 11.31 70.5686 10.6053 70.8579 10.008C71.1566 9.40133 71.5673 8.93933 72.0899 8.622C72.6126 8.30467 73.2006 8.146 73.8539 8.146ZM74.4699 9.868C73.8539 9.868 73.3593 10.0687 72.9859 10.47C72.6126 10.8713 72.4259 11.422 72.4259 12.122C72.4259 12.822 72.6126 13.3727 72.9859 13.774C73.3593 14.166 73.8539 14.362 74.4699 14.362C75.0673 14.362 75.5573 14.1613 75.9399 13.76C76.3319 13.3493 76.5279 12.8033 76.5279 12.122C76.5279 11.4313 76.3319 10.8853 75.9399 10.484C75.5573 10.0733 75.0673 9.868 74.4699 9.868ZM90.1469 8.132C91.0895 8.132 91.8315 8.426 92.3729 9.014C92.9235 9.59267 93.1989 10.4187 93.1989 11.492V16H91.2389V11.716C91.2389 11.1187 91.0849 10.6613 90.7769 10.344C90.4782 10.0173 90.0629 9.854 89.5309 9.854C88.9802 9.854 88.5415 10.0267 88.2149 10.372C87.8882 10.7173 87.7249 11.2213 87.7249 11.884V16H85.7649V11.716C85.7649 11.1187 85.6109 10.6613 85.3029 10.344C85.0042 10.0173 84.5889 9.854 84.0569 9.854C83.5062 9.854 83.0675 10.0267 82.7409 10.372C82.4142 10.7173 82.2509 11.2213 82.2509 11.884V16H80.2769V8.244H82.2509V9.714C82.4562 9.21 82.7782 8.82267 83.2169 8.552C83.6649 8.272 84.1829 8.132 84.7709 8.132C85.3962 8.132 85.9375 8.28133 86.3949 8.58C86.8615 8.87867 87.2115 9.308 87.4449 9.868C87.6875 9.336 88.0469 8.916 88.5229 8.608C89.0082 8.29067 89.5495 8.132 90.1469 8.132ZM99.5671 8.146C100.22 8.146 100.808 8.30467 101.331 8.622C101.854 8.93933 102.26 9.40133 102.549 10.008C102.848 10.6053 102.997 11.31 102.997 12.122C102.997 12.934 102.848 13.6433 102.549 14.25C102.26 14.8473 101.854 15.3047 101.331 15.622C100.808 15.9393 100.22 16.098 99.5671 16.098C98.9138 16.098 98.3538 15.944 97.8871 15.636C97.4298 15.3187 97.1031 14.8987 96.9071 14.376V19.696H94.9331V8.244H96.9071V9.854C97.1031 9.33133 97.4298 8.916 97.8871 8.608C98.3538 8.3 98.9138 8.146 99.5671 8.146ZM98.9511 9.868C98.3538 9.868 97.8591 10.0733 97.4671 10.484C97.0844 10.8853 96.8931 11.4313 96.8931 12.122C96.8931 12.8033 97.0844 13.3493 97.4671 13.76C97.8591 14.1613 98.3538 14.362 98.9511 14.362C99.5671 14.362 100.062 14.166 100.435 13.774C100.808 13.3727 100.995 12.822 100.995 12.122C100.995 11.422 100.808 10.8713 100.435 10.47C100.062 10.0687 99.5671 9.868 98.9511 9.868ZM104.17 6.018C104.17 5.70067 104.282 5.444 104.506 5.248C104.73 5.04267 105.024 4.94 105.388 4.94C105.752 4.94 106.046 5.04267 106.27 5.248C106.494 5.444 106.606 5.70067 106.606 6.018C106.606 6.326 106.494 6.58267 106.27 6.788C106.046 6.984 105.752 7.082 105.388 7.082C105.024 7.082 104.73 6.984 104.506 6.788C104.282 6.58267 104.17 6.326 104.17 6.018ZM106.368 8.244V16H104.394V8.244H106.368ZM111.738 8.146C112.494 8.146 113.17 8.30467 113.768 8.622C114.374 8.93933 114.85 9.40133 115.196 10.008C115.541 10.6053 115.714 11.31 115.714 12.122C115.714 12.934 115.541 13.6387 115.196 14.236C114.85 14.8333 114.374 15.2953 113.768 15.622C113.17 15.9393 112.494 16.098 111.738 16.098C110.982 16.098 110.3 15.9393 109.694 15.622C109.096 15.2953 108.625 14.8333 108.28 14.236C107.934 13.6387 107.762 12.934 107.762 12.122C107.762 11.31 107.934 10.6053 108.28 10.008C108.625 9.40133 109.096 8.93933 109.694 8.622C110.3 8.30467 110.982 8.146 111.738 8.146ZM111.738 9.854C111.187 9.854 110.72 10.05 110.338 10.442C109.955 10.8247 109.764 11.3847 109.764 12.122C109.764 12.8593 109.955 13.424 110.338 13.816C110.72 14.1987 111.187 14.39 111.738 14.39C112.288 14.39 112.755 14.1987 113.138 13.816C113.52 13.424 113.712 12.8593 113.712 12.122C113.712 11.3847 113.52 10.8247 113.138 10.442C112.755 10.05 112.288 9.854 111.738 9.854ZM121.729 8.132C122.625 8.132 123.339 8.426 123.871 9.014C124.403 9.602 124.669 10.428 124.669 11.492V16H122.709V11.716C122.709 11.1 122.55 10.624 122.233 10.288C121.916 9.94267 121.482 9.77 120.931 9.77C120.371 9.77 119.923 9.952 119.587 10.316C119.251 10.68 119.083 11.2027 119.083 11.884V16H117.109V8.244H119.083V9.798C119.288 9.27533 119.624 8.86933 120.091 8.58C120.567 8.28133 121.113 8.132 121.729 8.132ZM57.686 29.298C57.686 29.802 57.56 30.2687 57.308 30.698C57.056 31.118 56.6827 31.4587 56.188 31.72C55.6933 31.972 55.0913 32.098 54.382 32.098C53.682 32.098 53.0567 31.9813 52.506 31.748C51.9553 31.5053 51.512 31.16 51.176 30.712C50.8493 30.264 50.6627 29.7413 50.616 29.144H52.716C52.7627 29.5453 52.9213 29.8813 53.192 30.152C53.472 30.4133 53.8407 30.544 54.298 30.544C54.7087 30.544 55.0213 30.4367 55.236 30.222C55.46 29.998 55.572 29.7133 55.572 29.368C55.572 29.06 55.4833 28.808 55.306 28.612C55.1287 28.4067 54.9047 28.2433 54.634 28.122C54.3633 28.0007 53.99 27.8607 53.514 27.702C52.898 27.4967 52.394 27.296 52.002 27.1C51.61 26.8947 51.274 26.6007 50.994 26.218C50.7233 25.8353 50.588 25.336 50.588 24.72C50.588 23.8707 50.8913 23.2033 51.498 22.718C52.114 22.2233 52.926 21.976 53.934 21.976C54.9793 21.976 55.81 22.228 56.426 22.732C57.0513 23.236 57.406 23.908 57.49 24.748H55.362C55.306 24.3933 55.1567 24.104 54.914 23.88C54.6713 23.6467 54.34 23.53 53.92 23.53C53.556 23.53 53.262 23.628 53.038 23.824C52.814 24.0107 52.702 24.286 52.702 24.65C52.702 24.9393 52.786 25.182 52.954 25.378C53.1313 25.5647 53.3507 25.7187 53.612 25.84C53.8827 25.9613 54.2467 26.0967 54.704 26.246C55.3387 26.47 55.852 26.68 56.244 26.876C56.6453 27.072 56.986 27.366 57.266 27.758C57.546 28.15 57.686 28.6633 57.686 29.298ZM62.6261 24.146C63.6248 24.146 64.4555 24.4167 65.1181 24.958C65.7901 25.4993 66.2101 26.2367 66.3781 27.17H64.2921C64.2081 26.7593 64.0168 26.4373 63.7181 26.204C63.4195 25.9613 63.0415 25.84 62.5841 25.84C62.0615 25.84 61.6228 26.036 61.2681 26.428C60.9228 26.8107 60.7501 27.3753 60.7501 28.122C60.7501 28.8687 60.9228 29.438 61.2681 29.83C61.6228 30.2127 62.0615 30.404 62.5841 30.404C63.0415 30.404 63.4195 30.2873 63.7181 30.054C64.0168 29.8113 64.2081 29.4847 64.2921 29.074H66.3781C66.2101 30.0073 65.7901 30.7447 65.1181 31.286C64.4555 31.8273 63.6248 32.098 62.6261 32.098C61.8701 32.098 61.1981 31.9393 60.6101 31.622C60.0221 31.2953 59.5648 30.8333 59.2381 30.236C58.9115 29.6387 58.7481 28.934 58.7481 28.122C58.7481 27.31 58.9115 26.6053 59.2381 26.008C59.5648 25.4013 60.0221 24.9393 60.6101 24.622C61.1981 24.3047 61.8701 24.146 62.6261 24.146ZM72.4008 24.132C73.2968 24.132 74.0108 24.426 74.5428 25.014C75.0748 25.602 75.3408 26.428 75.3408 27.492V32H73.3808V27.716C73.3808 27.1 73.2221 26.624 72.9048 26.288C72.5874 25.9427 72.1534 25.77 71.6028 25.77C71.0428 25.77 70.5948 25.952 70.2588 26.316C69.9228 26.68 69.7548 27.2027 69.7548 27.884V32H67.7808V21.64H69.7548V25.798C69.9601 25.2753 70.2961 24.8693 70.7628 24.58C71.2388 24.2813 71.7848 24.132 72.4008 24.132ZM80.6616 24.146C81.4176 24.146 82.0943 24.3047 82.6916 24.622C83.2983 24.9393 83.7743 25.4013 84.1196 26.008C84.465 26.6053 84.6376 27.31 84.6376 28.122C84.6376 28.934 84.465 29.6387 84.1196 30.236C83.7743 30.8333 83.2983 31.2953 82.6916 31.622C82.0943 31.9393 81.4176 32.098 80.6616 32.098C79.9056 32.098 79.2243 31.9393 78.6176 31.622C78.0203 31.2953 77.549 30.8333 77.2036 30.236C76.8583 29.6387 76.6856 28.934 76.6856 28.122C76.6856 27.31 76.8583 26.6053 77.2036 26.008C77.549 25.4013 78.0203 24.9393 78.6176 24.622C79.2243 24.3047 79.9056 24.146 80.6616 24.146ZM80.6616 25.854C80.111 25.854 79.6443 26.05 79.2616 26.442C78.879 26.8247 78.6876 27.3847 78.6876 28.122C78.6876 28.8593 78.879 29.424 79.2616 29.816C79.6443 30.1987 80.111 30.39 80.6616 30.39C81.2123 30.39 81.679 30.1987 82.0616 29.816C82.4443 29.424 82.6356 28.8593 82.6356 28.122C82.6356 27.3847 82.4443 26.8247 82.0616 26.442C81.679 26.05 81.2123 25.854 80.6616 25.854ZM89.6167 24.146C90.3727 24.146 91.0494 24.3047 91.6467 24.622C92.2534 24.9393 92.7294 25.4013 93.0747 26.008C93.4201 26.6053 93.5927 27.31 93.5927 28.122C93.5927 28.934 93.4201 29.6387 93.0747 30.236C92.7294 30.8333 92.2534 31.2953 91.6467 31.622C91.0494 31.9393 90.3727 32.098 89.6167 32.098C88.8607 32.098 88.1794 31.9393 87.5727 31.622C86.9754 31.2953 86.5041 30.8333 86.1587 30.236C85.8134 29.6387 85.6407 28.934 85.6407 28.122C85.6407 27.31 85.8134 26.6053 86.1587 26.008C86.5041 25.4013 86.9754 24.9393 87.5727 24.622C88.1794 24.3047 88.8607 24.146 89.6167 24.146ZM89.6167 25.854C89.0661 25.854 88.5994 26.05 88.2167 26.442C87.8341 26.8247 87.6427 27.3847 87.6427 28.122C87.6427 28.8593 87.8341 29.424 88.2167 29.816C88.5994 30.1987 89.0661 30.39 89.6167 30.39C90.1674 30.39 90.6341 30.1987 91.0167 29.816C91.3994 29.424 91.5907 28.8593 91.5907 28.122C91.5907 27.3847 91.3994 26.8247 91.0167 26.442C90.6341 26.05 90.1674 25.854 89.6167 25.854ZM96.9618 21.64V32H94.9878V21.64H96.9618Z" fill="#26262C"/>
</svg>
