<svg width="18" height="18" viewBox="0 0 16 16" fill="none" xmlns="http://www.w3.org/2000/svg">
<g clip-path="url(#clip0_8_95)">
<path d="M7.60796 6.34451H11.6196C12.011 6.34451 12.3289 6.01678 12.3289 5.61342C12.3289 5.21006 12.011 4.88232 11.6196 4.88232H7.60796C7.21658 4.88232 6.89859 5.21006 6.89859 5.61342C6.89043 6.01678 7.21658 6.34451 7.60796 6.34451Z" fill="#C6C6DC"/>
<path d="M5.99453 9.19326H10.0061C10.3975 9.19326 10.7155 8.86553 10.7155 8.46217C10.7155 8.05881 10.3975 7.73108 10.0061 7.73108H5.99453C5.60315 7.73108 5.28516 8.05881 5.28516 8.46217C5.28516 8.86553 5.60315 9.19326 5.99453 9.19326Z" fill="#C6C6DC"/>
<path d="M9.07685 11.3698C9.07685 10.9664 8.75885 10.6387 8.36747 10.6387H4.35586C3.96448 10.6387 3.64648 10.9664 3.64648 11.3698C3.64648 11.7731 3.96448 12.1009 4.35586 12.1009H8.36747C8.75885 12.1009 9.07685 11.7731 9.07685 11.3698Z" fill="#C6C6DC"/>
<path d="M14.5798 8.0084C14.5554 7.94958 14.5228 7.90756 14.4901 7.85714L15.5583 5.95798C16.1453 4.92437 16.1453 3.68908 15.5664 2.65546C14.9875 1.62185 13.952 1 12.786 1H7.94273C6.80936 1 5.74938 1.63025 5.17047 2.64706L0.441324 11.042C-0.145742 12.0756 -0.145742 13.3109 0.43317 14.3445C1.01208 15.3782 2.0476 16 3.21358 16H11.5059C12.9817 16 14.3352 15.2269 15.118 13.9412C15.9089 12.6555 15.9904 11.0588 15.3544 9.68908L14.5798 8.0084ZM4.43664 14.4454H3.21358C2.5939 14.4454 2.0476 14.1176 1.73776 13.563C1.42792 13.0168 1.43608 12.3613 1.74592 11.8067L6.47506 3.41176C6.77675 2.87395 7.34751 2.53782 7.95088 2.53782H12.7942C13.4139 2.53782 13.9602 2.86555 14.27 3.42017C14.5798 3.96639 14.5717 4.62185 14.2618 5.17647L9.52454 13.5714C9.22286 14.1092 8.66025 14.4454 8.05688 14.4454H4.43664ZM13.8542 13.1092C13.3486 13.9412 12.468 14.4454 11.514 14.4454H10.7721C10.7884 14.4118 10.8128 14.3866 10.8291 14.3529L13.5932 9.45378L14.0172 10.3529C14.4168 11.2437 14.3597 12.2773 13.8542 13.1092Z" fill="#C6C6DC"/>
</g>
<defs>
<clipPath id="clip0_8_95">
<rect width="16" height="15" fill="white" transform="translate(0 1)"/>
</clipPath>
</defs>
</svg>
