<svg width="64" height="64" viewBox="0 0 64 64" fill="none" xmlns="http://www.w3.org/2000/svg">
<rect width="64" height="64" rx="8" fill="#FAFBFB"/>
<path fill-rule="evenodd" clip-rule="evenodd" d="M37.5795 50H18.5571C17.3491 50 16.1891 49.5144 15.334 48.6521C14.4806 47.7881 14 46.616 14 45.3953V18.6047C14 17.384 14.4806 16.2119 15.334 15.3479C16.1891 14.4856 17.3491 14 18.5571 14H32.7854C33.5543 14 34.2917 14.3081 34.8353 14.859L42.1499 22.2499C42.6951 22.7991 43 23.5442 43 24.3211V31.2716C41.8615 31.1025 40.7032 31.131 39.573 31.3553C38.6202 31.5429 37.8247 32.2009 37.4519 33.1068L37.1702 33.7933C36.799 33.7447 36.4394 33.6979 36.4394 33.6979C35.4766 33.5706 34.5154 33.9373 33.8774 34.6774C33.0141 35.6787 32.3495 36.8391 31.9237 38.0966C31.6088 39.0242 31.7745 40.0489 32.3645 40.8275L32.8135 41.4186C32.5865 41.7183 32.3645 42.0097 32.3645 42.0097C31.7745 42.7883 31.6088 43.813 31.9237 44.7407C32.3495 45.9981 33.0141 47.1585 33.8774 48.1598C34.5154 48.8999 35.4766 49.2666 36.4394 49.1393L37.1702 49.0439C37.3127 49.3922 37.4519 49.7304 37.4519 49.7304C37.49 49.8225 37.5331 49.9129 37.5795 50ZM21.0429 36.6047H28.5C29.1861 36.6047 29.7429 36.042 29.7429 35.3488C29.7429 34.6556 29.1861 34.093 28.5 34.093H21.0429C20.3568 34.093 19.8 34.6556 19.8 35.3488C19.8 36.042 20.3568 36.6047 21.0429 36.6047ZM32.6429 16.9302V22.7907C32.6429 23.715 33.3853 24.4651 34.3 24.4651H40.1L32.6429 16.9302ZM21.0429 30.7442H34.3C34.9861 30.7442 35.5429 30.1816 35.5429 29.4884C35.5429 28.7952 34.9861 28.2326 34.3 28.2326H21.0429C20.3568 28.2326 19.8 28.7952 19.8 29.4884C19.8 30.1816 20.3568 30.7442 21.0429 30.7442ZM21.0429 42.4651H28.5C29.1861 42.4651 29.7429 41.9025 29.7429 41.2093C29.7429 40.5161 29.1861 39.9535 28.5 39.9535H21.0429C20.3568 39.9535 19.8 40.5161 19.8 41.2093C19.8 41.9025 20.3568 42.4651 21.0429 42.4651Z" fill="#00B884"/>
<path fill-rule="evenodd" clip-rule="evenodd" d="M44.1687 32.9553C44.1687 32.9553 44.7858 34.4568 44.7841 34.4568C45.0188 34.5762 45.2466 34.7097 45.4673 34.8537L47.0633 34.6429C47.4945 34.5867 47.9274 34.7518 48.2142 35.0837C48.9722 35.9618 49.5546 36.982 49.9301 38.0849C50.071 38.5011 49.9962 38.9629 49.7302 39.3124C49.7302 39.3124 48.7532 40.6031 48.7532 40.6014C48.7671 40.8665 48.7671 41.1335 48.7532 41.3969L49.7302 42.6876C49.9962 43.0371 50.071 43.4989 49.9301 43.9151C49.5546 45.018 48.9722 46.0382 48.2142 46.9163C47.9274 47.2482 47.4945 47.4133 47.0633 47.3571C47.0633 47.3571 45.4673 47.1463 45.4691 47.1446C45.2483 47.2903 45.0188 47.4238 44.7858 47.5432L44.1687 49.0447C44.0018 49.4521 43.6436 49.7471 43.216 49.8314C42.0824 50.0562 40.9176 50.0562 39.7841 49.8314C39.3564 49.7471 38.9983 49.4521 38.8314 49.0447C38.8314 49.0447 38.2142 47.5432 38.216 47.5432C37.9813 47.4238 37.7518 47.2903 37.5327 47.1463L35.9368 47.3571C35.5039 47.4133 35.0727 47.2482 34.7859 46.9163C34.0261 46.0382 33.4437 45.018 33.0699 43.9151C32.9291 43.4989 33.0039 43.0371 33.2681 42.6876C33.2681 42.6876 34.2469 41.3969 34.2469 41.3986C34.233 41.1335 34.233 40.8665 34.2469 40.6031L33.2681 39.3124C33.0039 38.9629 32.9291 38.5011 33.0699 38.0849C33.4437 36.982 34.0261 35.9618 34.7859 35.0837C35.0727 34.7518 35.5039 34.5867 35.9368 34.6429C35.9368 34.6429 37.5327 34.8537 37.531 34.8554C37.7518 34.7097 37.9795 34.5762 38.2142 34.4568L38.8314 32.9553C38.9983 32.5479 39.3564 32.2529 39.7841 32.1686C40.9176 31.9438 42.0824 31.9438 43.216 32.1686C43.6436 32.2529 44.0018 32.5479 44.1687 32.9553ZM41.5 38.3659C40.0605 38.3659 38.8922 39.546 38.8922 41C38.8922 42.4541 40.0605 43.6341 41.5 43.6341C42.9395 43.6341 44.1078 42.4541 44.1078 41C44.1078 39.546 42.9395 38.3659 41.5 38.3659Z" fill="#00B884"/>
</svg>
