<svg width="64" height="64" viewBox="0 0 64 64" fill="none" xmlns="http://www.w3.org/2000/svg">
<rect width="64" height="64" rx="8" fill="#FAFBFB"/>
<path fill-rule="evenodd" clip-rule="evenodd" d="M40.5843 40.4352L35.7208 42.1605C35.3898 42.278 35.0215 42.1949 34.7736 41.947C34.5257 41.6991 34.4426 41.3308 34.5601 40.9998L36.2854 36.1364C36.2954 36.1091 36.3097 36.0848 36.3312 36.0647L49.1978 23.1967C49.8326 22.5619 50.8629 22.5619 51.4977 23.1967L53.5239 25.2229C54.1587 25.8577 54.1587 26.888 53.5239 27.5228L40.6559 40.3894C40.6359 40.4109 40.6115 40.4252 40.5843 40.4352ZM45.5251 39.574V44.0922C45.5251 45.2328 45.0723 46.3261 44.2655 47.1315C43.4602 47.9382 42.3669 48.391 41.2262 48.391H18.2989C17.1582 48.391 16.0649 47.9382 15.2596 47.1315C14.4528 46.3261 14 45.2328 14 44.0922V24.0307H44.3114L34.3036 34.0385C33.9826 34.3595 33.7362 34.7493 33.5843 35.1791L31.859 40.0412C31.3718 41.414 31.7185 42.9429 32.7474 43.9732C33.7777 45.0021 35.3067 45.3489 36.6795 44.8617L41.5415 43.1364C41.9714 42.9845 45.5251 39.574 45.5251 39.574ZM21.1648 41.2262H25.7058C26.4968 41.2262 27.1388 40.5843 27.1388 39.7933C27.1388 39.0023 26.4968 38.3603 25.7058 38.3603H21.1648C20.3738 38.3603 19.7318 39.0023 19.7318 39.7933C19.7318 40.5843 20.3738 41.2262 21.1648 41.2262ZM21.1648 35.4944H28.5718C29.3628 35.4944 30.0047 34.8524 30.0047 34.0614C30.0047 33.2704 29.3628 32.6285 28.5718 32.6285H21.1648C20.3738 32.6285 19.7318 33.2704 19.7318 34.0614C19.7318 34.8524 20.3738 35.4944 21.1648 35.4944ZM21.1648 29.7626H34.3036C35.0946 29.7626 35.7366 29.1206 35.7366 28.3296C35.7366 27.5386 35.0946 26.8966 34.3036 26.8966H21.1648C20.3738 26.8966 19.7318 27.5386 19.7318 28.3296C19.7318 29.1206 20.3738 29.7626 21.1648 29.7626ZM14 21.1648V18.2989C14 17.1582 14.4528 16.0649 15.2596 15.2596C16.0649 14.4528 17.1582 14 18.2989 14H41.2262C42.3669 14 43.4602 14.4528 44.2655 15.2596C45.0723 16.0649 45.5251 17.1582 45.5251 18.2989V21.1648H14Z" fill="#00B884"/>
</svg>
