<svg xmlns="http://www.w3.org/2000/svg" width="20" height="20" viewBox="0 0 20 20" fill="none">
  <path d="M5.83464 6.04115C6.1109 6.04115 6.37585 5.9314 6.57121 5.73605C6.76656 5.5407 6.8763 5.27575 6.8763 4.99948V1.50781C6.75057 1.60297 6.63596 1.712 6.53464 1.83281L3.1013 5.78281C3.0355 5.8655 2.9743 5.95174 2.91797 6.04115H5.83464Z" fill="#00B884"/>
  <path d="M17.2846 1.70778C17.0736 1.49401 16.8217 1.32483 16.544 1.21031C16.2663 1.09578 15.9684 1.03825 15.668 1.04112H8.25963H8.1263V4.99945C8.1263 5.60724 7.88486 6.19013 7.45509 6.6199C7.02532 7.04968 6.44242 7.29112 5.83464 7.29112H2.54297V16.6661C2.54297 17.2739 2.78441 17.8568 3.21418 18.2866C3.64395 18.7163 4.22685 18.9578 4.83464 18.9578H15.668C15.9689 18.9578 16.2669 18.8985 16.545 18.7833C16.823 18.6682 17.0756 18.4994 17.2884 18.2866C17.5012 18.0738 17.67 17.8211 17.7852 17.5431C17.9004 17.2651 17.9596 16.9671 17.9596 16.6661V3.33278C17.9602 3.03074 17.9008 2.73159 17.785 2.45265C17.6691 2.17371 17.499 1.92054 17.2846 1.70778ZM10.8346 13.9578H7.5013C7.33554 13.9578 7.17657 13.8919 7.05936 13.7747C6.94215 13.6575 6.8763 13.4985 6.8763 13.3328C6.8763 13.167 6.94215 13.0081 7.05936 12.8908C7.17657 12.7736 7.33554 12.7078 7.5013 12.7078H10.8346C11.0004 12.7078 11.1594 12.7736 11.2766 12.8908C11.3938 13.0081 11.4596 13.167 11.4596 13.3328C11.4596 13.4985 11.3938 13.6575 11.2766 13.7747C11.1594 13.8919 11.0004 13.9578 10.8346 13.9578ZM14.168 10.6245H7.5013C7.33554 10.6245 7.17657 10.5586 7.05936 10.4414C6.94215 10.3242 6.8763 10.1652 6.8763 9.99945C6.8763 9.83369 6.94215 9.67472 7.05936 9.55751C7.17657 9.4403 7.33554 9.37445 7.5013 9.37445H14.168C14.3337 9.37445 14.4927 9.4403 14.6099 9.55751C14.7271 9.67472 14.793 9.83369 14.793 9.99945C14.793 10.1652 14.7271 10.3242 14.6099 10.4414C14.4927 10.5586 14.3337 10.6245 14.168 10.6245Z" fill="#00B884"/>
</svg>
