<svg xmlns="http://www.w3.org/2000/svg" width="18" height="18" viewBox="0 0 18 18" fill="none">
  <g clip-path="url(#clip0_1712_18667)">
    <path d="M18 10.4414C18 7.70442 16.5293 5.19571 14.151 3.85453C13.8162 3.26081 13.3984 2.709 12.9033 2.21386C11.4757 0.786234 9.57758 0 7.55859 0C5.53961 0 3.64148 0.786234 2.21386 2.21386C0.786234 3.64148 0 5.53961 0 7.55859C0 8.78709 0.30041 10.0011 0.870363 11.0818L0.237375 14.8798L3.92066 14.2659C5.27709 16.5767 7.74872 18 10.4414 18C11.6699 18 12.8839 17.6996 13.9647 17.1296L17.7626 17.7626L17.1296 13.9646C17.6996 12.8839 18 11.6699 18 10.4414ZM7.55859 14.0625C6.44709 14.0625 5.3498 13.777 4.38539 13.2367L4.22374 13.1462L1.52044 13.5968L1.97096 10.8934L1.88044 10.7318C1.34023 9.76739 1.05469 8.67009 1.05469 7.55859C1.05469 3.97234 3.97234 1.05469 7.55859 1.05469C11.1449 1.05469 14.0625 3.97234 14.0625 7.55859C14.0625 11.1448 11.1449 14.0625 7.55859 14.0625Z" fill="#00B884"/>
    <path d="M10.6528 5.31275C9.9207 4.58069 8.73379 4.58069 8.00173 5.31275L7.55988 5.75456L7.11804 5.31272C6.38598 4.58066 5.19907 4.58066 4.46701 5.31272C3.73495 6.04477 3.73495 7.23168 4.46701 7.96374L7.55988 11.0566L10.6528 7.96378C11.3848 7.23172 11.3848 6.04481 10.6528 5.31275Z" fill="#00B884"/>
  </g>
  <defs>
    <clipPath id="clip0_1712_18667">
      <rect width="18" height="18" fill="white"/>
    </clipPath>
  </defs>
</svg>
