<svg xmlns="http://www.w3.org/2000/svg" width="20" height="20" viewBox="0 0 20 20" fill="none">
  <path d="M19.6783 10.7286C19.7092 11.467 19.4459 12.1875 18.9463 12.732C18.4466 13.2766 17.7514 13.6007 17.0131 13.6333C16.9699 13.6353 16.9268 13.6363 16.8838 13.6363C16.6876 13.6362 16.492 13.6149 16.3004 13.573C15.7318 14.4509 14.9862 15.2005 14.1113 15.7737C13.2364 16.347 12.2515 16.7314 11.2196 16.9023C11.0976 17.2608 10.8541 17.5655 10.5312 17.7636C10.2084 17.9617 9.82645 18.0407 9.45149 17.9871C9.07653 17.9334 8.7321 17.7505 8.47773 17.4698C8.22336 17.1892 8.07503 16.8285 8.0584 16.4501C8.04176 16.0717 8.15786 15.6993 8.38662 15.3974C8.61539 15.0956 8.94244 14.8831 9.31124 14.7968C9.68005 14.7104 10.0674 14.7557 10.4064 14.9247C10.7454 15.0936 11.0147 15.3758 11.1677 15.7222C12.6205 15.4535 13.933 14.6836 14.8764 13.5465C15.8197 12.4095 16.3342 10.9774 16.33 9.5C16.33 6.00957 13.4904 3.16992 9.99997 3.16992C6.50954 3.16992 3.66989 6.00957 3.66989 9.5C3.6697 10.5793 3.94554 11.6407 4.47118 12.5834C4.489 12.6145 4.50237 12.6479 4.51091 12.6827C4.56168 12.8239 4.55625 12.9791 4.49575 13.1163C4.43525 13.2535 4.3243 13.3623 4.18587 13.42C3.8469 13.5626 3.48285 13.6361 3.11509 13.636C3.07181 13.636 3.02843 13.635 2.98497 13.633C2.24696 13.6 1.55214 13.2757 1.05288 12.7312C0.553616 12.1867 0.290653 11.4664 0.32165 10.7283C0.334111 10.434 0.327157 10.1714 0.320361 9.91742C0.314032 9.67832 0.307431 9.43105 0.31829 9.17305C0.3507 8.45236 0.66071 7.77218 1.18339 7.27495C1.70607 6.77771 2.40087 6.50201 3.12227 6.50559C4.28071 3.85512 6.92731 1.99805 9.99997 1.99805C13.0726 1.99805 15.7193 3.85512 16.8777 6.50562C17.5992 6.50151 18.2942 6.77697 18.817 7.27422C19.3397 7.77146 19.6496 8.45184 19.6816 9.17262C19.6925 9.43102 19.6859 9.67824 19.6795 9.91734C19.6728 10.1713 19.6658 10.4341 19.6783 10.7286ZM14.9142 9.5C14.9139 10.2529 14.7407 10.9956 14.408 11.671C14.0752 12.3463 13.5918 12.9362 12.995 13.3952C12.3982 13.8541 11.704 14.1699 10.9659 14.3181C10.2277 14.4663 9.46541 14.443 8.7377 14.25L6.7486 15.3987C6.64824 15.4567 6.53294 15.4836 6.41729 15.476C6.30164 15.4684 6.19084 15.4267 6.09889 15.3562C6.00694 15.2856 5.93798 15.1894 5.90073 15.0796C5.86348 14.9699 5.85961 14.8516 5.88962 14.7396L6.39798 12.8432C5.55611 11.9332 5.08768 10.7397 5.08591 9.5C5.08591 6.78953 7.29024 4.58461 9.99997 4.58461C12.7097 4.58461 14.9142 6.78953 14.9142 9.5ZM8.63376 9.5C8.63376 9.3446 8.57203 9.19556 8.46214 9.08568C8.35226 8.9758 8.20322 8.91406 8.04782 8.91406H8.04684C7.931 8.91428 7.81783 8.94883 7.72161 9.01334C7.6254 9.07786 7.55047 9.16944 7.50629 9.27653C7.46211 9.38361 7.45066 9.50139 7.47339 9.61498C7.49612 9.72857 7.55202 9.83287 7.634 9.91471C7.71599 9.99654 7.8204 10.0522 7.93403 10.0748C8.04766 10.0973 8.16542 10.0856 8.27242 10.0412C8.37942 9.99685 8.47087 9.92175 8.5352 9.82542C8.59954 9.72908 8.63388 9.61584 8.63388 9.5H8.63376ZM10.586 9.5C10.586 9.48082 10.5849 9.46165 10.5829 9.44258C10.5811 9.42343 10.5782 9.40439 10.5743 9.38555C10.5708 9.36677 10.5661 9.34824 10.5602 9.33008C10.5548 9.31172 10.5482 9.29375 10.5411 9.27578C10.5341 9.25781 10.5255 9.24102 10.5165 9.22422C10.5076 9.20733 10.4978 9.1909 10.4872 9.175C10.4766 9.15893 10.4651 9.14342 10.4528 9.12852C10.4408 9.11358 10.4279 9.09937 10.4142 9.08594C10.4009 9.07227 10.3865 9.05937 10.3716 9.04688C10.3567 9.03516 10.3411 9.02344 10.3251 9.01289C10.3092 9.0023 10.2928 8.99252 10.2759 8.98359C10.2591 8.97461 10.2415 8.96641 10.2239 8.95898C10.2063 8.95162 10.1883 8.94523 10.17 8.93984C10.1335 8.92811 10.0958 8.92051 10.0575 8.91719C10.0002 8.91166 9.94227 8.91442 9.88567 8.92539C9.86683 8.92924 9.8482 8.93406 9.82985 8.93984C9.81154 8.94522 9.79354 8.95161 9.77595 8.95898C9.75837 8.96641 9.74079 8.97461 9.72399 8.98359C9.7072 8.99258 9.69079 9.00234 9.67474 9.01289C9.65868 9.02344 9.64309 9.03516 9.62868 9.04688C9.61345 9.05937 9.59938 9.07227 9.58571 9.08594C9.572 9.09938 9.55908 9.11359 9.547 9.12852C9.5349 9.14342 9.52357 9.15894 9.51306 9.175C9.50232 9.19088 9.49241 9.20731 9.48337 9.22422C9.47435 9.24095 9.46626 9.25817 9.45911 9.27578C9.45169 9.29354 9.44518 9.31166 9.43958 9.33008C9.43415 9.34805 9.42946 9.3668 9.42556 9.38555C9.4217 9.4044 9.41881 9.42343 9.41692 9.44258C9.41501 9.46172 9.41419 9.48086 9.41419 9.5C9.41419 9.51914 9.41501 9.53867 9.41692 9.55781C9.41884 9.57683 9.42173 9.59573 9.42556 9.61445C9.42946 9.6332 9.43415 9.65195 9.43958 9.67031C9.44518 9.6886 9.4517 9.70659 9.45911 9.72422C9.46626 9.74196 9.47435 9.7593 9.48337 9.77617C9.49231 9.79297 9.50251 9.80938 9.51306 9.82539C9.52358 9.84132 9.53491 9.85671 9.547 9.87148C9.55917 9.88645 9.57209 9.90079 9.58571 9.91445C9.59938 9.92773 9.61345 9.94102 9.62868 9.95312C9.64337 9.96532 9.65875 9.97667 9.67474 9.98711C9.69079 9.99766 9.70716 10.0078 9.72399 10.0168C9.75792 10.0345 9.79334 10.0491 9.82985 10.0605C9.84817 10.066 9.86692 10.0707 9.88567 10.0746C9.92333 10.0823 9.96169 10.0861 10.0001 10.0859C10.1553 10.0855 10.3041 10.0239 10.4142 9.91445C10.4412 9.88704 10.4656 9.85723 10.4872 9.82539C10.4978 9.80938 10.5075 9.79297 10.5165 9.77617C10.5255 9.75937 10.5337 9.7418 10.5411 9.72422C10.5486 9.70664 10.5548 9.68828 10.5602 9.67031C10.5661 9.652 10.5708 9.63334 10.5743 9.61445C10.5782 9.59573 10.581 9.57683 10.5829 9.55781C10.5849 9.53858 10.5859 9.51926 10.5859 9.49992L10.586 9.5ZM12.5391 9.5C12.5391 9.3446 12.4774 9.19556 12.3675 9.08568C12.2576 8.9758 12.1086 8.91406 11.9532 8.91406H11.9521C11.8362 8.91429 11.7231 8.94884 11.6269 9.01336C11.5307 9.07788 11.4557 9.16947 11.4116 9.27656C11.3674 9.38364 11.3559 9.50142 11.3787 9.615C11.4014 9.72859 11.4573 9.83289 11.5393 9.91472C11.6213 9.99655 11.7257 10.0522 11.8393 10.0748C11.9529 10.0973 12.0707 10.0856 12.1777 10.0412C12.2847 9.99685 12.3761 9.92174 12.4405 9.82541C12.5048 9.72908 12.5391 9.61584 12.5391 9.5Z" fill="#00B884"/>
</svg>
