<svg width="21" height="21" viewBox="0 0 21 21" fill="none" xmlns="http://www.w3.org/2000/svg">
<g clip-path="url(#clip0_459_2)">
<mask id="mask0_459_2" style="mask-type:luminance" maskUnits="userSpaceOnUse" x="0" y="0" width="21" height="21">
<path d="M20.5 0.5H0.5V20.5H20.5V0.5Z" fill="white"/>
</mask>
<g mask="url(#mask0_459_2)">
<path d="M18.284 12.5719L17.192 12.3119V12.1159C17.904 11.6199 18.368 10.7919 18.368 9.85994V8.43994C18.368 6.92394 17.132 5.68793 15.616 5.68793C14.936 5.68793 14.312 5.93593 13.832 6.34794C13.296 5.03593 12.008 4.11194 10.508 4.11194C9.004 4.11194 7.716 5.03993 7.18 6.35594C6.7 5.93993 6.07199 5.69193 5.38799 5.69193C3.872 5.69193 2.636 6.92794 2.636 8.44394V9.85994C2.636 10.7919 3.104 11.6159 3.812 12.1159V12.3119L2.72 12.5719C1.412 12.8839 0.5 14.0399 0.5 15.3799V16.5279C0.5 16.8679 0.776 17.1439 1.116 17.1439H3.94C3.936 17.2199 3.932 17.2919 3.932 17.3679V19.5799C3.932 19.9199 4.20799 20.1959 4.54799 20.1959H8.244C8.584 20.1959 8.86 19.9199 8.86 19.5799C8.86 19.2399 8.584 18.9639 8.244 18.9639H7.608H6.38H5.16399V17.3679C5.16399 16.1839 5.96799 15.1599 7.124 14.8839L8.812 14.4799L9.94 17.0479C10.04 17.2719 10.26 17.4159 10.504 17.4159C10.748 17.4159 10.968 17.2719 11.068 17.0479L12.196 14.4839L13.876 14.8839C15.028 15.1599 15.836 16.1799 15.836 17.3679V18.9599H12.696C12.356 18.9599 12.08 19.2359 12.08 19.5759C12.08 19.9159 12.356 20.1919 12.696 20.1919H16.452C16.792 20.1919 17.068 19.9159 17.068 19.5759V17.3679C17.068 17.2919 17.064 17.2159 17.06 17.1399H19.892C20.232 17.1399 20.508 16.8639 20.508 16.5239V15.3799C20.5 14.0399 19.588 12.8839 18.284 12.5719ZM14.092 9.76794C14.092 9.73994 14.096 9.70794 14.096 9.67994V9.13194C14.092 8.35194 14.092 8.31194 14.22 7.83594C14.452 7.29594 14.992 6.91594 15.616 6.91594C16.42 6.91594 17.084 7.54394 17.136 8.33594L17.14 9.56394V9.85594C17.14 10.6959 16.456 11.3759 15.62 11.3759C14.784 11.3759 14.1 10.6919 14.1 9.85594V9.76794H14.092ZM3.864 9.56794L3.868 8.33994C3.92 7.54794 4.57999 6.91994 5.38799 6.91994C6.01199 6.91994 6.552 7.29994 6.784 7.83994C6.908 8.33194 6.908 8.49594 6.908 9.13594V9.85994C6.908 10.6999 6.224 11.3799 5.38799 11.3799C4.54799 11.3799 3.868 10.6959 3.868 9.85994V9.56794H3.864ZM8.548 13.4999C8.392 13.4319 7.144 13.6159 7.144 13.6159L6.832 13.6919C5.62399 13.9799 4.67199 14.8239 4.22 15.9159H1.728V15.3799C1.728 14.6119 2.256 13.9439 3.004 13.7639L4.56799 13.3919C4.84399 13.3239 5.03999 13.0799 5.03999 12.7959V12.5879C5.15199 12.6039 5.26799 12.6119 5.38399 12.6119C5.49999 12.6119 5.61599 12.6039 5.72799 12.5879L5.75999 12.5839C6.18799 12.5159 6.596 12.3559 6.956 12.1159C7.156 11.9759 7.332 11.8119 7.488 11.6279C7.764 12.0519 8.124 12.4119 8.544 12.6879V13.4999H8.548ZM11.216 13.6399L10.496 15.2759L9.776 13.6359V13.1959C10.012 13.2439 10.252 13.2679 10.504 13.2679C10.748 13.2679 10.988 13.2439 11.22 13.1959V13.6399H11.216ZM10.504 12.0399C9.204 12.0399 8.144 10.9799 8.144 9.67994V9.03194V7.80394V7.69994C8.144 6.39994 9.204 5.33993 10.504 5.33993C11.68 5.33993 12.656 6.19993 12.836 7.32394L12.864 8.76794V9.77194C12.816 11.0319 11.776 12.0399 10.504 12.0399ZM19.272 15.9159H16.772C16.32 14.8239 15.368 13.9839 14.156 13.6919L13.848 13.6199C13.848 13.6199 12.608 13.3079 12.448 13.3799V12.6999C12.872 12.4239 13.236 12.0639 13.516 11.6359C13.672 11.8199 13.848 11.9799 14.044 12.1159C14.396 12.3639 14.804 12.5279 15.232 12.5839L15.272 12.5879C15.384 12.6039 15.5 12.6119 15.616 12.6119C15.732 12.6119 15.848 12.6039 15.96 12.5879V12.7959C15.96 13.0799 16.156 13.3279 16.432 13.3919L17.996 13.7679C18.748 13.9479 19.272 14.6119 19.272 15.3839V15.9159Z" fill="url(#paint0_linear_459_2)"/>
<path d="M10.496 2.93997C10.836 2.93997 11.112 2.66397 11.112 2.32397V1.40397C11.112 1.06396 10.836 0.787964 10.496 0.787964C10.156 0.787964 9.88 1.06396 9.88 1.40397V2.32397C9.88 2.66397 10.156 2.93997 10.496 2.93997Z" fill="url(#paint1_linear_459_2)"/>
<path d="M7.36407 3.6638C7.48407 3.7838 7.64007 3.8438 7.80007 3.8438C7.95607 3.8438 8.11607 3.7838 8.23607 3.6638C8.47607 3.4238 8.47607 3.0358 8.23607 2.7958L7.59207 2.1518C7.35207 1.9118 6.96407 1.9118 6.72407 2.1518C6.48407 2.3918 6.48407 2.7798 6.72407 3.0198L7.36407 3.6638Z" fill="url(#paint2_linear_459_2)"/>
<path d="M13.184 3.85604C13.34 3.85604 13.5 3.79604 13.62 3.67604L14.26 3.03604C14.5 2.79604 14.5 2.40804 14.26 2.16804C14.02 1.92804 13.632 1.92804 13.392 2.16804L12.752 2.80804C12.512 3.04804 12.512 3.43604 12.752 3.67604C12.872 3.79604 13.028 3.85604 13.184 3.85604Z" fill="url(#paint3_linear_459_2)"/>
</g>
</g>
<defs>
<linearGradient id="paint0_linear_459_2" x1="0.499965" y1="12.1539" x2="20.5068" y2="12.1539" gradientUnits="userSpaceOnUse">
<stop stop-color="#37DE89"/>
<stop offset="1" stop-color="#15C7A4"/>
</linearGradient>
<linearGradient id="paint1_linear_459_2" x1="9.88" y1="1.86396" x2="11.1119" y2="1.86396" gradientUnits="userSpaceOnUse">
<stop stop-color="#37DE89"/>
<stop offset="1" stop-color="#15C7A4"/>
</linearGradient>
<linearGradient id="paint2_linear_459_2" x1="6.54407" y1="2.9078" x2="8.41601" y2="2.9078" gradientUnits="userSpaceOnUse">
<stop stop-color="#37DE89"/>
<stop offset="1" stop-color="#15C7A4"/>
</linearGradient>
<linearGradient id="paint3_linear_459_2" x1="12.572" y1="2.92204" x2="14.4399" y2="2.92204" gradientUnits="userSpaceOnUse">
<stop stop-color="#37DE89"/>
<stop offset="1" stop-color="#15C7A4"/>
</linearGradient>
<clipPath id="clip0_459_2">
<rect width="20" height="20" fill="white" transform="translate(0.5 0.5)"/>
</clipPath>
</defs>
</svg>
