<svg width="65" height="64" viewBox="0 0 65 64" fill="none" xmlns="http://www.w3.org/2000/svg">
<rect x="0.5" width="64" height="64" rx="8" fill="#FAFBFB"/>
<path d="M45.4806 14.667C39.763 14.667 32.091 18.5897 26.939 25.3337H22.668C19.5819 25.3337 17.8131 27.6371 16.5952 30.0731L14.9648 33.3337H18.8139H22.668L26.668 37.3337L30.668 41.3337V45.1878V49.0369L33.9286 47.4067C36.3646 46.1886 38.668 44.4198 38.668 41.3337V37.0627C45.412 31.9107 49.3347 24.2387 49.3347 18.5211V14.667H45.4806ZM38.668 22.667C40.1408 22.667 41.3347 23.8609 41.3347 25.3337C41.3347 26.8065 40.1408 28.0003 38.668 28.0003C37.1952 28.0003 36.0014 26.8065 36.0014 25.3337C36.0014 23.8609 37.1952 22.667 38.668 22.667ZM21.3347 38.667L20.0014 40.0003C18.0755 41.9262 17.3347 46.667 17.3347 46.667C17.3347 46.667 21.8627 46.139 24.0014 44.0003L25.3347 42.667L21.3347 38.667Z" fill="#00B884"/>
</svg>
