<svg width="64" height="64" viewBox="0 0 64 64" fill="none" xmlns="http://www.w3.org/2000/svg">
<rect width="64" height="64" rx="8" fill="#FAFBFB"/>
<path d="M49.5781 37.9375C49.5781 36.6484 48.5234 35.5938 47.2344 35.5938C48.5234 35.5938 49.5781 34.5391 49.5781 33.25C49.5781 31.9609 48.5234 30.9062 47.2344 30.9062H37.6251C39.0547 26.6171 39.0312 25.25 39.0312 22.625C39.0312 20.6749 37.4323 19.1094 35.5156 19.1094H34.8125C34.3672 19.1094 33.8047 19.461 33.6874 20C32.528 24.5141 30.7152 29.6941 26.1406 30.7433V47.7013L30.1952 49.0468C31.3905 49.4452 32.6328 49.6562 33.8984 49.6562H44.8906C46.1851 49.6562 47.2344 48.6068 47.2344 47.3125C47.2344 46.018 46.1851 44.9688 44.8906 44.9688H47.2344C48.5234 44.9688 49.5781 43.9141 49.5781 42.625C49.5781 41.3359 48.5234 40.2812 47.2344 40.2812C48.5234 40.2812 49.5781 39.2266 49.5781 37.9375Z" fill="#00B884"/>
<path d="M20.2812 28.5625H15.5938C14.946 28.5625 14.4219 29.0866 14.4219 29.7344V50.8281C14.4219 51.4759 14.946 52 15.5938 52H20.2812C22.2198 52 23.7969 50.423 23.7969 48.4844V32.0781C23.7969 30.1395 22.2198 28.5625 20.2812 28.5625ZM20.2812 47.3125C19.6341 47.3125 19.1094 46.7878 19.1094 46.1406C19.1094 45.4933 19.6341 44.9688 20.2812 44.9688C20.9284 44.9688 21.4531 45.4933 21.4531 46.1406C21.4531 46.7878 20.9284 47.3125 20.2812 47.3125Z" fill="#00B884"/>
<path d="M30.5423 17.1674L28.8852 15.5103C28.4274 15.0526 27.6858 15.0526 27.2281 15.5103C26.7703 15.968 26.7703 16.7097 27.2281 17.1674L28.8852 18.8245C29.3429 19.2822 30.0845 19.2822 30.5423 18.8245C31 18.3668 31 17.6251 30.5423 17.1674Z" fill="#00B884"/>
<path d="M43.8021 15.5103C43.3443 15.0526 42.6027 15.0526 42.1449 15.5103L40.4878 17.1674C40.0301 17.6251 40.0301 18.3668 40.4878 18.8245C40.9456 19.2822 41.6872 19.2822 42.1449 18.8245L43.8021 17.1674C44.2598 16.7097 44.2598 15.968 43.8021 15.5103Z" fill="#00B884"/>
<path d="M35.5156 12C34.8593 12 34.3438 12.5155 34.3438 13.1719V15.5938C34.3438 16.2501 34.8593 16.7656 35.5156 16.7656C36.172 16.7656 36.6875 16.2501 36.6875 15.5938V13.1719C36.6875 12.5155 36.172 12 35.5156 12Z" fill="#00B884"/>
</svg>
